<svg xmlns="http://www.w3.org/2000/svg" width="340" height="347" viewBox="0 0 340 347" version="1.1"><path d="M 158.500 86.933 C 128.932 91.783, 105.515 112.196, 95.904 141.500 C 93.713 148.179, 93.592 150.150, 93.264 184.500 C 92.879 224.759, 92.925 225.072, 99.898 229.730 C 103.076 231.853, 104.328 232, 119.247 232 C 137.444 232, 140.490 231.164, 144.234 225.144 C 146.421 221.627, 146.500 220.680, 146.500 198 C 146.500 171.308, 146.077 169.590, 138.444 165.267 C 134.916 163.269, 133.102 163.031, 121.250 163.016 C 108 163, 108 163, 108 159.660 C 108 154.791, 111.485 141.950, 114.330 136.335 C 125.145 114.993, 146.473 101.739, 170 101.739 C 186.756 101.739, 200.749 107.661, 213.044 119.956 C 223.886 130.798, 229.291 142.009, 231.470 158.175 C 232.100 162.851, 232.100 162.851, 217.619 163.175 C 201.034 163.547, 199.211 164.268, 195.250 172.020 C 193.120 176.189, 193.001 177.574, 193.022 197.962 C 193.041 217.036, 193.264 219.984, 194.964 223.729 C 198.335 231.155, 200.881 231.992, 220.102 231.996 C 235.701 232, 236.910 231.863, 240.102 229.730 C 247.058 225.083, 247.123 224.648, 246.732 185.500 C 246.383 150.624, 246.372 150.468, 243.631 141.527 C 242.118 136.592, 239.513 129.991, 237.844 126.858 C 228.283 108.920, 208.707 93.499, 189.177 88.520 C 181.695 86.612, 165.550 85.777, 158.500 86.933" stroke="none" fill="#fbfbfb" fill-rule="evenodd"/><path d="M 154.035 13.087 C 121.065 16.261, 89.898 29.872, 63.821 52.484 C 38.590 74.362, 20.517 105.706, 12.932 140.739 C 9.623 156.025, 9.154 181.832, 11.895 197.903 C 15.705 220.249, 25.033 244.019, 36.894 261.608 C 69.344 309.726, 126.110 337.155, 182.750 332.083 C 204.744 330.113, 220.643 325.759, 239.500 316.539 C 285.931 293.839, 316.128 254.708, 327.119 203 C 330.159 188.696, 330.421 159.458, 327.643 144.500 C 319.598 101.186, 295.870 64.543, 260.043 40.108 C 236.747 24.221, 212.370 15.541, 184 13.034 C 171.142 11.897, 166.309 11.906, 154.035 13.087 M 154 25.036 C 135.987 27.240, 117.648 32.965, 101.198 41.519 C 73.634 55.852, 51.469 78.476, 37.534 106.500 C 27.669 126.339, 23.257 143.450, 22.322 165.500 C 20.789 201.623, 30.572 233.402, 51.962 261.789 C 59.723 272.088, 76.559 288.179, 86.521 294.818 C 101.803 305.002, 121.822 313.497, 140 317.513 C 151.688 320.094, 180.368 320.661, 192.943 318.558 C 225.145 313.174, 251.459 299.710, 274.034 277.068 C 295.543 255.496, 308.849 231.118, 315.178 201.688 C 318.128 187.975, 318.372 159.096, 315.653 145.536 C 311.609 125.371, 303.764 106.402, 292.374 89.248 C 285.165 78.392, 264.325 57.313, 254.165 50.604 C 236.321 38.819, 214.392 29.830, 195.500 26.557 C 184.127 24.587, 163.768 23.840, 154 25.036 M 168.250 101.689 C 169.213 101.941, 170.787 101.941, 171.750 101.689 C 172.713 101.438, 171.925 101.232, 170 101.232 C 168.075 101.232, 167.287 101.438, 168.250 101.689 M 113.292 232.742 C 117.027 232.935, 122.877 232.934, 126.292 232.739 C 129.706 232.545, 126.650 232.387, 119.500 232.389 C 112.350 232.390, 109.556 232.550, 113.292 232.742 M 213.750 232.740 C 217.188 232.936, 222.813 232.936, 226.250 232.740 C 229.688 232.545, 226.875 232.385, 220 232.385 C 213.125 232.385, 210.313 232.545, 213.750 232.740" stroke="none" fill="#b2bc38" fill-rule="evenodd"/><path d="M 148.500 12.143 C 113.269 16.625, 80.406 33.152, 54.500 59.419 C 42.373 71.715, 34.052 83.278, 26.154 98.808 C 12.833 125.003, 6.944 152.225, 8.481 180.500 C 10.460 216.904, 23.319 249.115, 47.207 277.500 C 70.417 305.079, 104.762 325.135, 140 331.686 C 153.677 334.228, 185.745 334.201, 199.500 331.635 C 264.731 319.466, 314.923 269.948, 329.178 203.694 C 332.413 188.663, 332.452 158.190, 329.257 142.443 C 322.320 108.252, 306.641 79.242, 282.691 56.285 C 251.202 26.103, 212.450 10.784, 168.500 11.146 C 161.350 11.205, 152.350 11.654, 148.500 12.143 M 154.035 13.087 C 121.065 16.261, 89.898 29.872, 63.821 52.484 C 38.590 74.362, 20.517 105.706, 12.932 140.739 C 9.623 156.025, 9.154 181.832, 11.895 197.903 C 15.705 220.249, 25.033 244.019, 36.894 261.608 C 69.344 309.726, 126.110 337.155, 182.750 332.083 C 204.744 330.113, 220.643 325.759, 239.500 316.539 C 285.931 293.839, 316.128 254.708, 327.119 203 C 330.159 188.696, 330.421 159.458, 327.643 144.500 C 319.598 101.186, 295.870 64.543, 260.043 40.108 C 236.747 24.221, 212.370 15.541, 184 13.034 C 171.142 11.897, 166.309 11.906, 154.035 13.087 M 154 25.036 C 135.987 27.240, 117.648 32.965, 101.198 41.519 C 73.634 55.852, 51.469 78.476, 37.534 106.500 C 27.669 126.339, 23.257 143.450, 22.322 165.500 C 20.789 201.623, 30.572 233.402, 51.962 261.789 C 59.723 272.088, 76.559 288.179, 86.521 294.818 C 101.803 305.002, 121.822 313.497, 140 317.513 C 151.688 320.094, 180.368 320.661, 192.943 318.558 C 225.145 313.174, 251.459 299.710, 274.034 277.068 C 295.543 255.496, 308.849 231.118, 315.178 201.688 C 318.128 187.975, 318.372 159.096, 315.653 145.536 C 311.609 125.371, 303.764 106.402, 292.374 89.248 C 285.165 78.392, 264.325 57.313, 254.165 50.604 C 236.321 38.819, 214.392 29.830, 195.500 26.557 C 184.127 24.587, 163.768 23.840, 154 25.036 M 155.500 87.428 C 140.471 90.404, 128.789 96.486, 117.407 107.260 C 104.832 119.163, 97.733 131.744, 94.451 147.944 C 93.217 154.037, 92.977 162.021, 93.210 189.178 C 93.489 221.618, 93.577 222.960, 95.605 225.678 C 100.099 231.704, 102.945 232.500, 120 232.500 C 134.524 232.500, 135.738 232.352, 139.274 230.153 C 146.189 225.854, 146.500 224.471, 146.500 198 C 146.500 176.298, 146.347 174.240, 144.500 171.105 C 140.458 164.242, 138.493 163.537, 122.431 163.176 C 105.812 162.803, 106.732 163.705, 109.504 150.500 C 113.405 131.920, 126.542 115.663, 144.190 107.575 C 153.258 103.420, 159.831 102, 170 102 C 180.708 102, 186.947 103.440, 197 108.232 C 216.016 117.296, 228.852 136.157, 231.331 158.678 C 231.790 162.856, 231.790 162.856, 217.465 163.178 C 201.887 163.528, 200.289 164.054, 195.562 170.385 C 193.610 173, 193.500 174.460, 193.500 197.823 C 193.500 222.060, 193.542 222.558, 195.829 225.765 C 200.119 231.780, 202.702 232.500, 220 232.500 C 237.055 232.500, 239.901 231.704, 244.395 225.678 C 246.420 222.964, 246.511 221.605, 246.789 190.016 C 247.048 160.468, 246.878 156.201, 245.090 147.449 C 239.321 119.212, 217.554 96.167, 189.464 88.559 C 181.070 86.285, 164.122 85.721, 155.500 87.428" stroke="none" fill="#cd3cda" fill-rule="evenodd"/></svg>